# xmcd
#
# Track frame offsets:
# 150
# 7965
# 24416
# 46483
# 68646
# 72013
# 93263
# 128760
# 145453
# 152323
# 175617
# 200559
# 218645
# 243242
# 248485
# 269920
# 285366
#
# Disc length: 4572 seconds
#
#
# Revision: 3
# Processed by: cddbd v1.5.1PL2 Copyright (c) Steve Scherf et al.
# Submitted via: FreeRIP 2.944 
#
DISCID=e111da11
DTITLE=Pentagono - Microfonicamente Dizendo
DYEAR=2005
DGENRE=Hip-Hop
TTITLE0=Pentagono - Intro
TTITLE1=Pentagono - Abre Alas
TTITLE2=Pentagono - Pense o Que Quiser
TTITLE3=Pentagono - Franco Atirador
TTITLE4=Pentagono - Alem do Coracao
TTITLE5=Pentagono - Me diz pra Quem
TTITLE6=Pentagono - Soul
TTITLE7=Pentagono - Chegaí
TTITLE8=Pentagono - Tem como...
TTITLE9=Pentagono - Eu Quero ver
TTITLE10=Pentagono - Um ser Assim
TTITLE11=Pentagono - Alicerce
TTITLE12=Pentagono - Na Moral
TTITLE13=Pentagono - E pá
TTITLE14=Pentagono - Só Não Posso
TTITLE15=Pentagono - Dusíndio
TTITLE16=Pentagono - Salve
EXTD=
EXTT0=
EXTT1=
EXTT2=
EXTT3=
EXTT4=
EXTT5=
EXTT6=
EXTT7=
EXTT8=
EXTT9=
EXTT10=
EXTT11=
EXTT12=
EXTT13=
EXTT14=
EXTT15=
EXTT16=
PLAYORDER=
